<svg xmlns="http://www.w3.org/2000/svg" viewBox="0 0 432.5 432.5"><defs><style>.cls-1{fill:#fff;stroke:#bbbdbf;stroke-miterlimit:10;stroke-width:0.5px;}</style></defs><g id="Layer_2" data-name="Layer 2"><g id="Layer_1-2" data-name="Layer 1"><rect class="cls-1" x="0.25" y="0.25" width="72" height="72"/><rect class="cls-1" x="72.25" y="0.25" width="72" height="72"/><rect class="cls-1" x="144.25" y="0.25" width="72" height="72"/><rect class="cls-1" x="216.25" y="0.25" width="72" height="72"/><rect class="cls-1" x="288.25" y="0.25" width="72" height="72"/><rect class="cls-1" x="360.25" y="0.25" width="72" height="72"/><rect class="cls-1" x="0.25" y="72.25" width="72" height="72"/><rect class="cls-1" x="72.25" y="72.25" width="72" height="72"/><rect class="cls-1" x="144.25" y="72.25" width="72" height="72"/><rect class="cls-1" x="216.25" y="72.25" width="72" height="72"/><rect class="cls-1" x="288.25" y="72.25" width="72" height="72"/><rect class="cls-1" x="360.25" y="72.25" width="72" height="72"/><rect class="cls-1" x="0.25" y="144.25" width="72" height="72"/><rect class="cls-1" x="72.25" y="144.25" width="72" height="72"/><rect class="cls-1" x="144.25" y="144.25" width="72" height="72"/><rect class="cls-1" x="216.25" y="144.25" width="72" height="72"/><rect class="cls-1" x="288.25" y="144.25" width="72" height="72"/><rect class="cls-1" x="360.25" y="144.25" width="72" height="72"/><rect class="cls-1" x="0.25" y="216.25" width="72" height="72"/><rect class="cls-1" x="72.25" y="216.25" width="72" height="72"/><rect class="cls-1" x="144.25" y="216.25" width="72" height="72"/><rect class="cls-1" x="216.25" y="216.25" width="72" height="72"/><rect class="cls-1" x="288.25" y="216.25" width="72" height="72"/><rect class="cls-1" x="360.25" y="216.25" width="72" height="72"/><rect class="cls-1" x="0.25" y="288.25" width="72" height="72"/><rect class="cls-1" x="72.25" y="288.25" width="72" height="72"/><rect class="cls-1" x="144.25" y="288.25" width="72" height="72"/><rect class="cls-1" x="216.25" y="288.25" width="72" height="72"/><rect class="cls-1" x="288.25" y="288.25" width="72" height="72"/><rect class="cls-1" x="360.25" y="288.25" width="72" height="72"/><rect class="cls-1" x="0.25" y="360.25" width="72" height="72"/><rect class="cls-1" x="72.25" y="360.25" width="72" height="72"/><rect class="cls-1" x="144.25" y="360.25" width="72" height="72"/><rect class="cls-1" x="216.25" y="360.25" width="72" height="72"/><rect class="cls-1" x="288.25" y="360.25" width="72" height="72"/><rect class="cls-1" x="360.25" y="360.25" width="72" height="72"/></g></g></svg>